<svg width="809" height="300" viewBox="0 0 809 300" fill="none" xmlns="http://www.w3.org/2000/svg">
<g clip-path="url(#clip0)">
<path d="M783.407 -15H-25V285H783.407V-15Z" fill="#55D400"/>
<path d="M230.579 61.063L79.5478 109.329C60.6785 115.359 60.4831 125.709 79.1116 132.447L385.613 243.305C404.242 250.043 434.64 250.616 453.509 244.586L604.54 196.32C623.41 190.29 623.605 179.94 604.977 173.202L298.475 62.3441C279.846 55.6065 249.448 55.0329 230.579 61.063Z" fill="#502D16"/>
<path d="M230.579 30.0103L79.5478 78.2758C60.6785 84.3059 60.4832 94.6563 79.1116 101.394L385.613 212.252C404.242 218.99 434.64 219.563 453.509 213.533L604.54 165.268C623.41 159.238 623.605 148.887 604.977 142.15L298.475 31.2914C279.846 24.5537 249.448 23.9802 230.579 30.0103Z" fill="#502D16"/>
<path d="M422.618 221.872L65.291 92.4858L66.2095 118.551L423.537 247.937L422.618 221.872Z" fill="#502D16"/>
<path d="M609.368 185.792L434.152 243.931C432.678 244.421 431.892 239.62 432.398 233.208C432.904 226.797 434.51 221.203 435.985 220.713L611.2 162.574C612.675 162.084 613.461 166.885 612.955 173.297C612.449 179.708 610.843 185.302 609.368 185.792Z" fill="white"/>
<path d="M240.429 25.8266L208.391 36.6968L564.345 177.776L596.383 166.906L240.429 25.8266Z" fill="#55D400"/>
<path d="M422.618 221.872L65.291 92.4858L66.2095 118.551L423.537 247.937L422.618 221.872Z" fill="#502D16"/>
<path d="M434.323 221.238L439.529 232.216L434.323 243.446C434.323 243.446 419.773 246.154 434.323 221.238Z" fill="black" stroke="black" stroke-width="0.00325147"/>
<path d="M332.345 154.55C331.56 154.071 330.66 153.571 329.991 153.11C323.666 148.765 319.754 144.851 316.239 141.055C304.222 128.079 321.49 146.54 307.213 131.315C300.287 124.086 292.219 116.617 283.296 108.985C279.606 105.83 271.351 98.9032 265.934 94.942C262.243 92.243 258.2 89.4806 254.333 86.7499C248.899 83.2424 223.251 66.6534 201.073 64.8012C198.494 64.5862 197.299 64.9261 195.413 64.9889C193.575 66.5233 191.282 66.8292 196.052 70.0529C196.515 70.3663 198.658 70.6269 199.604 70.9931C205.022 73.09 209.012 75.1465 214.63 77.243C231.64 83.59 243.333 86.808 263.144 92.822C303.964 104.707 346.7 115.494 386.464 127.959C411.256 135.732 412.214 136.452 433.047 144.273C438.304 146.644 444.311 149.094 448.817 151.386C452.991 153.507 456.442 155.557 458.883 157.408C465.495 162.426 471.497 166.735 465.449 168.643C460.22 170.292 454.432 169.185 441.938 167.98C435.322 166.737 428.999 165.786 422.092 164.253C381.478 155.238 346.783 141.335 325.967 130.405C318.088 126.269 312.462 122.452 305.71 118.475C269.53 93.6098 257.653 73.5734 244.763 53.5132L250.669 57.1337C258.148 68.9142 265.903 80.7271 277.261 93.3595C280.071 96.4854 282.689 99.5776 286.643 102.935C291.346 106.93 297.676 111.231 303.192 115.38C309.825 119.302 315.351 123.067 323.087 127.148C343.334 137.826 377.319 151.553 417.196 160.394C423.909 161.883 430.033 162.791 436.451 163.989C448.515 165.106 454.094 166.172 458.893 164.465C460.674 163.831 460.193 162.553 460.9 161.613C461.11 161.339 462.245 161.281 461.633 160.82C454.616 155.535 450.053 153.995 436.468 147.778C415.913 139.993 414.918 139.248 390.301 131.492C350.635 118.996 307.882 108.204 267 96.383C247.022 90.3712 235.283 87.1601 217.957 80.7952C199.631 74.0627 196.799 71.6885 188.975 65.7358C187.3 64.462 186.621 63.3636 186.684 62.4706C186.74 61.6871 188.446 61.3463 189.326 60.7814C191.478 60.7615 192.924 60.4497 195.779 60.7221C220.409 63.0676 245.275 79.3901 251.837 83.5171C255.74 86.2693 259.955 89.0776 263.548 91.7735C283.833 107 300.377 121.543 314.096 135.483C317.228 138.79 320.259 142.077 323.394 145.384C324.494 146.545 326.187 147.834 326.794 148.887C326.995 149.239 324.461 147.185 324.63 147.527C324.936 148.151 327.77 149.902 329.174 150.807L332.349 154.55L332.345 154.55Z" fill="white"/>
<path d="M566.5 164L563 174V216.5H595V167.5L566.5 164Z" fill="#55D400" stroke="#55D400"/>
</g>
<defs>
<clipPath id="clip0">
<rect width="808.407" height="300" fill="white"/>
</clipPath>
</defs>
</svg>
