<?xml version="1.0" standalone="no"?>
<!DOCTYPE svg PUBLIC "-//W3C//DTD SVG 20010904//EN"
 "http://www.w3.org/TR/2001/REC-SVG-20010904/DTD/svg10.dtd">
<svg version="1.0" xmlns="http://www.w3.org/2000/svg"
 width="848.000000pt" height="848.000000pt" viewBox="0 0 848.000000 848.000000"
 preserveAspectRatio="xMidYMid meet">
<metadata>
Created by potrace 1.11, written by Peter Selinger 2001-2013
</metadata>
<g transform="translate(0.000000,848.000000) scale(0.100000,-0.100000)"
fill="#000000" stroke="none">
<path d="M3828 8313 c-43 -2 -78 -8 -78 -12 0 -5 -28 -11 -62 -15 -67 -7 -193
-30 -268 -48 -25 -6 -65 -14 -90 -19 -25 -5 -67 -15 -95 -23 -27 -8 -75 -21
-105 -30 -30 -9 -93 -27 -140 -40 -101 -29 -144 -44 -185 -62 -16 -7 -55 -23
-85 -35 -30 -12 -82 -34 -115 -49 -33 -16 -82 -38 -110 -50 -71 -30 -200 -97
-270 -141 -33 -21 -88 -53 -123 -71 -35 -18 -87 -51 -117 -73 -30 -22 -78 -56
-106 -75 -343 -236 -728 -617 -961 -952 -35 -50 -75 -105 -89 -122 -25 -30
-35 -46 -89 -145 -14 -25 -37 -64 -51 -86 -14 -22 -45 -76 -68 -120 -24 -43
-49 -88 -57 -99 -8 -11 -14 -27 -14 -34 0 -7 -22 -59 -49 -115 -27 -56 -61
-133 -76 -171 -15 -38 -31 -77 -35 -85 -12 -25 -31 -82 -46 -136 -7 -27 -23
-81 -34 -120 -32 -108 -50 -175 -64 -240 -8 -33 -19 -80 -24 -105 -15 -61 -40
-202 -48 -270 -4 -30 -12 -58 -18 -62 -16 -10 -16 -946 0 -956 6 -4 14 -32 18
-62 9 -81 36 -228 51 -285 7 -27 17 -70 20 -95 4 -25 11 -53 16 -62 5 -10 14
-37 19 -60 5 -24 17 -68 26 -98 9 -30 25 -84 35 -120 23 -84 48 -153 60 -164
5 -6 9 -17 9 -25 1 -9 9 -34 20 -56 11 -22 19 -43 20 -47 0 -4 22 -54 50 -112
27 -58 50 -111 50 -118 0 -8 6 -23 14 -34 8 -11 33 -56 57 -99 23 -44 57 -102
74 -130 18 -27 47 -77 65 -109 17 -32 46 -78 63 -102 18 -23 57 -78 87 -121
128 -184 231 -303 436 -507 187 -187 258 -250 404 -360 181 -135 220 -162 220
-153 0 5 -18 18 -180 135 -175 126 -529 454 -612 567 -16 22 -46 58 -66 80
-49 52 -100 117 -146 182 -20 29 -52 75 -71 103 -94 134 -125 183 -131 205 -3
13 -12 29 -20 36 -8 6 -14 16 -14 21 0 5 -11 24 -25 42 -13 18 -31 48 -40 67
-14 32 -21 45 -45 87 -6 9 -16 28 -22 42 -7 14 -18 31 -25 38 -7 7 -13 23 -13
34 0 11 -6 32 -13 46 -16 32 -48 101 -72 157 -10 22 -24 53 -31 68 -8 16 -14
33 -14 39 0 6 -8 29 -19 52 -28 62 -42 106 -51 156 -5 25 -15 65 -23 90 -33
100 -47 154 -47 184 -1 17 -7 42 -15 56 -8 14 -14 42 -15 62 0 20 -5 49 -11
65 -14 36 -42 227 -41 276 1 20 -3 37 -8 37 -6 0 -10 35 -10 83 0 45 -4 108
-10 141 -11 68 4 306 20 316 7 4 8 23 4 46 -6 43 21 255 35 264 4 3 11 47 15
98 4 52 13 113 21 135 7 23 15 94 17 158 2 67 8 122 14 130 7 8 15 48 19 89 4
41 14 84 21 95 8 11 14 35 14 55 0 20 9 53 20 75 11 22 20 51 20 65 0 14 7 38
15 54 8 15 15 38 15 50 0 12 7 31 15 42 8 10 15 29 15 42 0 23 28 101 56 155
8 16 14 34 14 41 0 8 9 25 20 39 11 14 20 31 20 39 0 13 40 99 51 108 3 3 16
28 28 55 12 28 26 57 31 65 83 141 139 232 165 269 17 25 50 73 73 106 23 33
58 81 79 107 21 25 65 79 98 120 67 83 273 291 354 358 30 25 75 63 100 85 64
55 168 135 177 135 4 0 26 16 50 35 23 19 45 35 48 35 4 0 29 16 56 35 27 19
54 35 60 35 6 0 13 6 16 14 3 8 18 18 34 21 16 3 31 13 34 21 3 8 15 14 27 14
11 0 32 9 46 20 14 11 31 20 38 20 7 0 15 7 19 15 3 9 18 15 36 15 24 0 30 4
30 21 0 17 4 20 23 15 14 -3 32 1 43 9 11 8 14 15 7 15 -19 0 -16 14 7 27 16
11 18 10 14 -2 -7 -17 22 -20 46 -5 12 7 10 11 -10 18 -22 8 -12 16 111 89
113 67 222 125 372 199 16 8 36 14 45 14 9 1 35 9 57 20 22 11 56 19 76 20 19
0 44 7 55 15 10 8 29 15 41 15 12 0 45 9 73 20 28 11 64 20 79 20 16 0 42 7
57 15 16 8 43 15 59 15 17 0 50 8 75 16 25 9 77 20 115 24 39 5 95 13 125 19
239 45 744 50 1045 10 237 -31 526 -93 660 -140 17 -6 50 -15 75 -20 45 -9
109 -30 165 -54 17 -7 47 -20 68 -29 21 -9 42 -16 46 -16 5 0 56 -22 113 -49
56 -26 114 -52 128 -56 29 -9 258 -131 280 -150 8 -7 51 -31 95 -55 44 -23 87
-48 95 -55 31 -26 153 -108 147 -98 -3 5 -25 23 -49 39 -24 16 -66 46 -94 66
-27 21 -75 50 -105 65 -29 16 -73 41 -97 56 -23 15 -73 44 -110 63 -37 20 -80
44 -97 54 -16 10 -41 21 -55 25 -14 4 -65 27 -115 50 -114 54 -331 141 -376
150 -19 3 -52 12 -74 20 -22 7 -66 20 -97 29 -32 9 -82 23 -110 31 -29 9 -73
19 -98 24 -25 5 -65 13 -90 19 -77 19 -202 41 -270 48 -36 4 -68 12 -72 18 -7
10 -699 18 -870 9z"/>
<path d="M4145 8114 c-125 -10 -312 -36 -426 -59 -206 -41 -253 -53 -366 -89
-146 -47 -232 -70 -398 -106 -77 -16 -192 -46 -255 -66 -63 -19 -151 -46 -195
-59 -78 -24 -263 -105 -355 -155 -25 -14 -65 -34 -90 -44 -48 -20 -91 -47
-233 -142 -49 -32 -103 -68 -120 -78 -125 -76 -480 -400 -586 -536 -25 -32
-72 -89 -104 -128 -33 -38 -69 -85 -80 -104 -12 -20 -46 -70 -75 -113 -28 -42
-52 -79 -52 -81 0 -3 -11 -20 -24 -37 -52 -69 -237 -457 -266 -556 -10 -37
-28 -91 -39 -122 -41 -115 -96 -343 -125 -520 -53 -327 -46 -1012 15 -1439 19
-134 76 -378 116 -495 13 -38 28 -90 34 -115 19 -84 64 -191 209 -495 80 -167
250 -434 390 -610 22 -27 57 -72 77 -99 21 -27 120 -131 220 -231 169 -170
241 -231 456 -390 106 -78 354 -233 443 -277 38 -18 128 -65 199 -104 72 -39
141 -75 155 -79 14 -4 84 -34 155 -67 72 -33 150 -69 175 -80 25 -11 53 -24
62 -29 10 -5 48 -17 85 -28 37 -10 120 -35 183 -54 125 -38 372 -94 540 -122
77 -13 190 -19 425 -22 472 -8 623 6 1020 95 95 21 326 90 340 102 7 6 15 7
18 3 4 -3 7 -1 7 5 0 17 -75 15 -89 -2 -6 -7 -33 -16 -59 -20 -26 -4 -56 -13
-66 -21 -11 -8 -36 -15 -57 -15 -20 0 -50 -7 -65 -15 -16 -8 -49 -15 -74 -15
-25 0 -58 -7 -74 -15 -15 -8 -50 -15 -77 -15 -26 0 -68 -6 -91 -14 -65 -21
-116 -26 -313 -27 -99 -1 -190 -6 -201 -10 -12 -4 -93 -2 -180 6 -88 7 -168
13 -179 12 -42 -3 -204 16 -200 23 5 9 -124 25 -132 17 -2 -3 -26 1 -51 8 -26
8 -81 17 -122 20 -41 4 -95 13 -120 20 -25 8 -81 21 -125 30 -182 38 -114 43
105 8 161 -25 795 -25 970 1 245 36 401 73 700 167 158 50 238 83 427 175 83
41 154 74 157 74 5 0 197 119 316 195 25 16 80 57 123 90 43 33 104 79 135
102 146 111 431 396 547 549 22 29 67 88 101 131 98 127 256 387 337 553 89
185 167 363 167 381 0 8 20 74 44 149 74 224 123 444 151 670 21 175 21 721
-1 885 -49 375 -167 787 -314 1090 -37 77 -76 160 -87 185 -40 91 -253 417
-363 555 -22 28 -57 72 -77 99 -43 55 -388 404 -448 453 -46 37 -71 56 -227
173 -62 47 -139 102 -171 123 -33 21 -57 41 -54 43 7 8 207 -107 207 -118 0
-5 6 -8 13 -8 8 0 22 -9 32 -20 10 -11 22 -20 27 -20 5 0 21 -11 36 -25 15
-14 57 -46 95 -72 37 -25 67 -49 67 -54 0 -4 8 -10 18 -14 9 -3 40 -27 68 -53
28 -26 69 -61 90 -79 21 -17 79 -70 128 -117 57 -55 92 -82 97 -75 9 15 32 1
26 -15 -3 -7 3 -18 13 -24 14 -9 19 -8 24 3 9 24 38 6 33 -21 -3 -19 6 -31 42
-59 25 -20 47 -32 49 -27 6 19 42 0 42 -22 0 -23 38 -66 57 -66 6 0 13 6 15
12 6 16 96 -62 114 -98 13 -25 13 -26 -7 -21 -21 6 -21 5 1 -18 16 -17 32 -24
53 -22 27 2 32 -2 40 -30 6 -18 16 -33 23 -33 8 0 14 -7 14 -15 0 -9 9 -15 24
-15 13 0 27 -7 30 -16 8 -22 8 -22 -11 -26 -15 -3 -15 -4 0 -17 15 -12 17 -11
17 3 0 20 14 21 30 1 10 -12 10 -15 -4 -15 -9 0 -16 -6 -16 -13 0 -19 48 -62
68 -62 11 0 17 -8 16 -21 0 -16 5 -20 23 -16 16 3 23 0 23 -12 0 -9 -7 -16
-16 -16 -14 0 -14 -3 -4 -15 7 -8 24 -15 37 -15 21 0 24 -4 20 -23 -8 -30 4
-46 36 -49 18 -2 27 -8 27 -20 0 -10 -5 -18 -10 -18 -6 0 3 -20 20 -45 17 -25
37 -45 45 -45 9 0 15 -9 15 -22 0 -12 14 -44 32 -71 30 -48 32 -49 40 -26 9
23 10 23 20 5 6 -11 13 -40 15 -65 2 -26 16 -67 33 -96 28 -48 29 -49 38 -25
l9 25 17 -33 c17 -32 17 -34 -3 -39 -20 -5 -20 -5 2 -49 11 -24 25 -44 29 -44
4 0 8 -7 8 -15 0 -20 42 -105 52 -105 4 0 8 -12 9 -27 0 -22 2 -24 7 -10 11
27 36 2 58 -57 16 -45 16 -50 1 -60 -14 -11 -14 -18 8 -77 l24 -64 0 49 c1 27
4 47 7 44 10 -11 14 -92 3 -98 -6 -5 -6 -16 1 -34 8 -22 13 -26 24 -17 11 9
15 6 18 -18 2 -16 1 -38 -3 -49 -9 -23 8 -89 28 -113 7 -9 11 -23 8 -32 -4 -8
-1 -35 6 -58 6 -24 13 -78 14 -119 2 -41 3 -88 4 -104 2 -51 25 -12 31 52 l6
57 4 -57 c3 -31 2 -54 -2 -51 -5 2 -8 -3 -8 -11 0 -9 4 -16 8 -16 11 0 13
-352 3 -465 -4 -49 -9 -78 -10 -62 -1 27 -14 36 -26 18 -3 -6 -8 -58 -11 -117
-2 -59 -9 -113 -15 -120 -5 -6 -14 -48 -19 -93 -5 -44 -14 -98 -20 -121 -6
-22 -13 -63 -16 -91 -3 -29 -11 -61 -19 -73 -8 -11 -15 -34 -15 -51 0 -16 -7
-39 -15 -49 -8 -11 -15 -35 -15 -53 0 -19 -6 -44 -14 -56 -8 -12 -17 -40 -21
-61 -4 -22 -13 -49 -21 -60 -8 -11 -14 -35 -14 -52 0 -17 -7 -37 -15 -44 -8
-7 -15 -24 -15 -39 0 -15 -9 -34 -20 -44 -11 -9 -20 -28 -20 -41 0 -13 -7 -29
-15 -36 -8 -7 -15 -23 -15 -36 0 -12 -4 -25 -9 -28 -4 -3 -21 -32 -36 -63 -15
-32 -31 -65 -36 -73 -5 -8 -12 -22 -15 -30 -14 -37 -56 -119 -62 -122 -4 -2
-18 -25 -32 -53 -23 -45 -57 -102 -70 -115 -8 -8 -29 -43 -43 -70 -6 -14 -34
-55 -62 -91 -27 -37 -57 -77 -65 -89 -22 -33 -92 -123 -105 -135 -6 -5 -43
-48 -82 -95 -111 -133 -377 -385 -503 -478 -25 -18 -89 -66 -143 -107 -53 -40
-117 -83 -142 -95 -25 -12 -45 -26 -45 -31 0 -5 -6 -9 -13 -9 -7 0 -36 -16
-66 -35 -29 -19 -56 -35 -60 -35 -3 0 -29 -15 -56 -32 -28 -18 -62 -39 -77
-45 -16 -7 -28 -17 -28 -23 0 -19 36 -10 86 23 27 17 70 43 94 56 25 13 61 36
80 50 19 15 65 44 103 64 37 20 107 67 155 105 48 37 101 76 117 87 46 29 268
230 381 346 108 110 274 297 274 309 0 3 38 56 85 116 47 60 97 134 112 164
15 30 37 68 50 83 12 15 39 58 59 95 20 37 47 83 59 102 12 19 26 46 30 60 4
14 33 77 65 140 32 63 61 126 65 140 4 14 20 52 35 85 15 33 31 80 35 105 4
25 14 57 21 72 8 15 14 34 14 43 0 10 6 31 13 48 24 56 55 161 62 204 4 24 11
45 16 49 5 3 9 19 9 35 0 41 20 119 31 119 13 0 11 -25 -7 -97 -9 -35 -14 -69
-11 -75 7 -19 37 111 59 252 6 41 16 78 22 82 16 10 15 1106 0 1116 -6 4 -14
32 -18 62 -6 52 -25 143 -47 235 -6 22 -15 65 -20 95 -5 30 -14 59 -18 65 -5
5 -12 26 -15 45 -8 38 -31 115 -52 170 -7 19 -16 53 -19 75 -3 22 -13 51 -21
65 l-15 25 6 -25 c4 -14 9 -41 11 -60 l3 -35 -9 35 c-5 19 -23 66 -40 105 -17
38 -38 85 -46 104 -9 20 -33 72 -54 116 -21 44 -49 105 -63 135 -13 30 -57
109 -97 175 -39 66 -84 140 -98 165 -14 25 -39 64 -56 87 -17 23 -60 81 -95
130 -140 192 -338 406 -536 581 -66 58 -126 112 -133 119 -8 7 -35 27 -60 45
-26 17 -81 57 -122 89 -124 94 -430 279 -534 321 -39 16 -75 33 -81 38 -6 5
-79 38 -163 74 -193 83 -511 179 -752 226 -255 51 -364 61 -665 65 -159 1
-312 1 -340 -1z m1781 -686 c3 -5 4 -12 1 -14 -7 -7 -47 15 -47 25 0 11 38 2
46 -11z m1862 -1657 c3 -8 -1 -12 -9 -9 -7 2 -15 10 -17 17 -3 8 1 12 9 9 7
-2 15 -10 17 -17z m196 -336 c3 -9 0 -15 -9 -15 -8 0 -15 7 -15 15 0 8 4 15 9
15 5 0 11 -7 15 -15z m146 -21 c0 -14 -4 -22 -10 -19 -5 3 -10 17 -10 31 0 14
4 22 10 19 6 -3 10 -17 10 -31z m30 -116 c0 -36 -4 -35 -14 5 -4 16 -2 27 4
27 5 0 10 -14 10 -32z m40 -139 c0 -6 -4 -7 -10 -4 -5 3 -10 11 -10 16 0 6 5
7 10 4 6 -3 10 -11 10 -16z m-4492 -132 c197 -284 416 -617 527 -802 119 -199
176 -281 210 -301 38 -23 106 -22 291 5 77 11 240 32 364 45 124 14 267 31
318 37 113 13 239 16 270 5 55 -18 47 -79 -17 -114 -34 -19 -171 -74 -321
-127 -36 -13 -90 -33 -120 -45 -102 -39 -223 -81 -570 -197 -397 -132 -424
-137 -540 -88 -62 25 -94 38 -310 118 -126 46 -421 164 -710 282 -129 53 -264
108 -300 122 -95 36 -124 71 -85 103 22 18 87 13 680 -55 375 -42 386 -42 419
-9 23 22 20 57 -14 175 -81 277 -230 843 -230 874 0 8 9 24 20 35 30 30 67 11
118 -63z m4549 -1414 l-15 -58 0 50 c0 28 2 64 5 80 6 29 6 29 16 8 7 -15 5
-39 -6 -80z m-5017 -3003 c13 -9 13 -10 0 -10 -8 0 -22 5 -30 10 -13 9 -13 10
0 10 8 0 22 -5 30 -10z"/>
<path d="M2860 8035 c0 -13 4 -14 20 -5 11 6 20 13 20 15 0 3 -9 5 -20 5 -11
0 -20 -7 -20 -15z"/>
<path d="M2720 7965 c0 -13 4 -14 20 -5 11 6 20 13 20 15 0 3 -9 5 -20 5 -11
0 -20 -7 -20 -15z"/>
<path d="M2660 7935 c0 -13 4 -14 20 -5 11 6 20 13 20 15 0 3 -9 5 -20 5 -11
0 -20 -7 -20 -15z"/>
<path d="M2390 7780 c0 -13 11 -13 30 0 12 8 11 10 -7 10 -13 0 -23 -4 -23
-10z"/>
<path d="M6620 7537 c0 -3 32 -28 70 -56 84 -61 94 -60 13 2 -63 48 -83 60
-83 54z"/>
<path d="M6785 7410 c10 -11 20 -20 23 -20 3 0 -3 9 -13 20 -10 11 -20 20 -23
20 -3 0 3 -9 13 -20z"/>
<path d="M6860 7348 c24 -27 45 -48 47 -48 8 0 0 9 -44 50 l-48 45 45 -47z"/>
<path d="M6920 7296 c0 -2 8 -10 18 -17 15 -13 16 -12 3 4 -13 16 -21 21 -21
13z"/>
<path d="M7000 7225 c19 -19 36 -35 39 -35 3 0 -10 16 -29 35 -19 19 -36 35
-39 35 -3 0 10 -16 29 -35z"/>
<path d="M7065 7160 c10 -11 20 -20 23 -20 3 0 -3 9 -13 20 -10 11 -20 20 -23
20 -3 0 3 -9 13 -20z"/>
<path d="M7110 7116 c0 -2 8 -10 18 -17 15 -13 16 -12 3 4 -13 16 -21 21 -21
13z"/>
<path d="M7235 6990 c10 -11 20 -20 23 -20 3 0 -3 9 -13 20 -10 11 -20 20 -23
20 -3 0 3 -9 13 -20z"/>
<path d="M7360 6846 c0 -2 8 -10 18 -17 15 -13 16 -12 3 4 -13 16 -21 21 -21
13z"/>
<path d="M6870 6681 c0 -6 4 -13 10 -16 6 -3 7 1 4 9 -7 18 -14 21 -14 7z"/>
<path d="M7150 6475 c19 -19 35 -35 37 -35 2 0 3 9 3 20 0 13 -7 20 -20 20
-11 0 -20 7 -20 15 0 8 -8 15 -17 15 -13 0 -8 -9 17 -35z"/>
<path d="M8000 5784 c0 -6 7 -19 16 -30 14 -18 14 -18 3 6 -14 31 -19 36 -19
24z"/>
<path d="M8031 5715 c0 -11 8 -33 19 -50 11 -16 20 -25 20 -18 0 6 -4 15 -10
18 -5 3 -14 20 -19 38 -6 20 -9 25 -10 12z"/>
<path d="M8056 5175 c4 -8 12 -15 20 -15 8 0 14 7 14 15 0 8 -9 15 -20 15 -13
0 -18 -5 -14 -15z"/>
<path d="M238 4526 c-5 -27 -7 -79 -7 -115 l2 -66 9 70 c5 39 7 90 6 115 l-3
45 -7 -49z"/>
<path d="M8201 3294 c0 -12 -8 -38 -16 -57 -8 -20 -15 -44 -15 -54 1 -10 10 7
21 37 11 30 18 64 16 75 -4 19 -4 19 -6 -1z"/>
<path d="M8152 3117 c-17 -47 -14 -59 4 -18 8 19 13 39 12 43 -2 5 -9 -6 -16
-25z"/>
<path d="M8115 2999 c-4 -6 -5 -12 -2 -15 2 -3 7 2 10 11 7 17 1 20 -8 4z"/>
<path d="M8102 2945 c0 -16 2 -22 5 -12 2 9 2 23 0 30 -3 6 -5 -1 -5 -18z"/>
<path d="M1993 814 c10 -12 49 -38 88 -58 39 -21 89 -51 112 -67 22 -16 45
-29 51 -29 14 0 -114 84 -179 117 -27 14 -59 33 -70 42 -20 16 -20 16 -2 -5z"/>
<path d="M6106 785 c-3 -8 -13 -15 -22 -15 -16 0 -29 -6 -111 -48 -23 -12 -51
-22 -62 -22 -12 0 -21 -4 -21 -10 0 -5 -18 -14 -40 -20 -21 -6 -42 -15 -45
-20 -3 -6 -14 -10 -23 -10 -39 0 -92 -22 -92 -37 0 -22 49 -13 130 25 36 17
94 42 129 57 52 22 205 99 220 112 2 1 -9 3 -26 3 -18 0 -33 -6 -37 -15z"/>
<path d="M2272 644 c10 -10 20 -16 22 -13 3 3 -5 11 -17 18 -21 13 -21 12 -5
-5z"/>
<path d="M2325 617 c45 -31 175 -90 182 -84 5 5 -61 37 -76 37 -5 0 -33 14
-61 30 -51 30 -81 41 -45 17z"/>
<path d="M2530 520 c35 -24 207 -100 224 -100 6 0 -25 16 -69 36 -44 19 -97
44 -118 54 -40 21 -62 27 -37 10z"/>
<path d="M2784 405 c11 -8 27 -15 35 -15 9 0 3 7 -13 15 -36 19 -47 19 -22 0z"/>
<path d="M2860 375 c14 -8 34 -14 45 -14 13 0 8 5 -15 14 -46 18 -61 18 -30 0z"/>
<path d="M2938 353 c6 -2 18 -2 25 0 6 3 1 5 -13 5 -14 0 -19 -2 -12 -5z"/>
<path d="M3000 335 c14 -8 32 -14 40 -14 8 0 0 6 -19 14 -42 19 -54 19 -21 0z"/>
<path d="M3095 305 c17 -8 39 -14 50 -14 11 0 2 6 -20 14 -50 18 -70 18 -30 0z"/>
<path d="M3220 270 c30 -11 64 -19 75 -19 11 0 -9 9 -45 19 -82 24 -103 24
-30 0z"/>
<path d="M3355 235 c22 -8 51 -13 65 -13 15 0 5 5 -25 14 -63 17 -94 16 -40
-1z"/>
<path d="M5048 223 c7 -3 16 -2 19 1 4 3 -2 6 -13 5 -11 0 -14 -3 -6 -6z"/>
<path d="M3505 204 c28 -7 61 -13 75 -13 16 1 7 6 -25 14 -68 18 -113 17 -50
-1z"/>
<path d="M4895 200 c-27 -7 -27 -8 -5 -8 14 0 36 4 50 8 20 6 21 8 5 8 -11 0
-33 -4 -50 -8z"/>
<path d="M3633 183 c9 -2 23 -2 30 0 6 3 -1 5 -18 5 -16 0 -22 -2 -12 -5z"/>
<path d="M4818 183 c7 -3 16 -2 19 1 4 3 -2 6 -13 5 -11 0 -14 -3 -6 -6z"/>
<path d="M3680 170 c0 -6 28 -10 68 -9 52 1 60 3 37 9 -45 11 -105 11 -105 0z"/>
<path d="M4685 170 c-24 -6 -17 -8 33 -9 35 0 62 3 62 9 0 11 -50 11 -95 0z"/>
</g>
</svg>
