<?xml version="1.0" encoding="UTF-8" standalone="no"?>
<!-- Created with Inkscape (http://www.inkscape.org/) -->

<svg
   xmlns:dc="http://purl.org/dc/elements/1.1/"
   xmlns:cc="http://creativecommons.org/ns#"
   xmlns:rdf="http://www.w3.org/1999/02/22-rdf-syntax-ns#"
   xmlns:svg="http://www.w3.org/2000/svg"
   xmlns="http://www.w3.org/2000/svg"
   xmlns:sodipodi="http://sodipodi.sourceforge.net/DTD/sodipodi-0.dtd"
   xmlns:inkscape="http://www.inkscape.org/namespaces/inkscape"
   width="256px"
   height="256px"
   viewBox="0 0 256 256"
   version="1.1"
   id="SVGRoot"
   inkscape:version="0.92.3 (2405546, 2018-03-11)"
   sodipodi:docname="logo.svg">
  <sodipodi:namedview
     id="base"
     pagecolor="#ffffff"
     bordercolor="#666666"
     borderopacity="1.0"
     inkscape:pageopacity="0.0"
     inkscape:pageshadow="2"
     inkscape:zoom="1"
     inkscape:cx="128"
     inkscape:cy="128"
     inkscape:document-units="px"
     inkscape:current-layer="layer1"
     showgrid="false"
     inkscape:window-width="1920"
     inkscape:window-height="960"
     inkscape:window-x="0"
     inkscape:window-y="27"
     inkscape:window-maximized="1"
     inkscape:grid-bbox="true" />
  <defs
     id="defs3411" />
  <metadata
     id="metadata3414">
    <rdf:RDF>
      <cc:Work
         rdf:about="">
        <dc:format>image/svg+xml</dc:format>
        <dc:type
           rdf:resource="http://purl.org/dc/dcmitype/StillImage" />
        <dc:title></dc:title>
      </cc:Work>
    </rdf:RDF>
  </metadata>
  <g
     id="layer1"
     inkscape:groupmode="layer"
     inkscape:label="Layer 1">
    <path
       style="opacity:1;fill:#ffffff;fill-opacity:1;stroke:none;stroke-width:8.21633434;stroke-linecap:butt;stroke-linejoin:miter;stroke-miterlimit:4;stroke-dasharray:none;stroke-dashoffset:0;stroke-opacity:1"
       id="path861"
       d="m 6.310216,156.08074 c 0.81899,-0.64113 1.594016,-1.34282 2.456966,-1.92355 8.139163,-5.47696 17.103944,-9.66358 26.056016,-13.60798 30.598339,-13.48216 -12.777418,5.77126 22.962044,-10.12253 16.836715,-7.60797 33.392479,-15.84968 49.687598,-24.55598 6.73613,-3.59909 21.38192,-11.56596 29.11954,-16.412896 5.27218,-3.30257 10.42382,-6.793723 15.63573,-10.19057 6.26623,-4.558467 35.95343,-26.095521 21.55269,-36.575932 -1.67471,-1.21875 -3.86281,-1.496243 -5.79419,-2.244333 -6.60476,0.232289 -9.69087,-0.527286 -15.65637,3.568217 -0.58051,0.398723 0.54724,1.464806 0.24062,2.098685 -1.75707,3.632168 -4.69395,6.640626 -6.26585,10.356699 -4.75827,11.24897 -4.35603,18.235576 -5.47487,30.439428 -0.68053,24.814652 3.91584,49.714572 0.40214,74.466572 -2.19073,15.43259 -3.622,16.30233 -9.59982,30.11129 -2.78326,3.74351 -5.13322,7.85203 -8.34981,11.23051 -2.97832,3.12827 -6.38603,5.90681 -10.08682,8.13396 -10.02802,6.03493 -18.3463,11.35389 -30.013881,10.06877 -10.088329,-1.11114 -11.840459,-4.25377 -19.441282,-10.26195 -2.081728,-3.57577 -4.828773,-6.83979 -6.245193,-10.72749 -8.328414,-22.85943 4.443802,-46.42894 20.409609,-62.25709 6.041859,-5.98979 13.123424,-10.8306 19.685137,-16.24594 46.5736,-31.33541 99.94758,-49.361936 152.46944,-67.827241 0,0 -6.19617,4.829066 -6.19617,4.829066 v 0 c -30.92684,10.806297 -61.70401,21.748804 -91.80636,34.731875 -7.44809,3.21234 -14.96562,6.32271 -22.10925,10.16485 -8.49735,4.57026 -16.4911,10.02065 -24.73665,15.03103 -6.49978,5.32988 -13.507322,10.09473 -19.499363,15.98974 -15.679603,15.42565 -28.540566,38.58374 -20.322305,61.01949 1.383406,3.77663 4.084841,6.9298 6.127292,10.39464 7.483967,5.77269 9.180089,8.79967 19.058393,9.69352 3.664043,0.33167 7.324553,-0.70237 10.989863,-1.01985 1.06903,-0.0925 2.29476,0.34593 3.21223,-0.21052 10.51644,-6.37859 11.27096,-9.29069 18.75071,-19.02304 6.11933,-13.66892 7.59687,-14.5704 9.89527,-29.91971 3.70316,-24.73062 -0.8955,-49.64052 -0.47556,-74.440186 0.9601,-12.271829 0.49282,-19.273169 5.01796,-30.666466 4.78628,-12.050682 9.80481,-14.782262 21.72231,-21.934085 2.55007,-1.530332 5.44961,-2.53039 8.37123,-3.086252 2.56718,-0.488169 5.22647,0.0023 7.8397,0.0023 2.03651,0.886645 4.36241,1.288481 6.10955,2.660004 15.06634,11.826924 -14.4815,32.863426 -21.70098,38.297302 -5.24735,3.42592 -10.38935,7.01899 -15.74211,10.277855 -30.23443,18.407028 -61.706408,34.804458 -93.835937,49.626988 -7.735864,3.46559 -15.496841,6.87489 -23.232102,10.34178 -2.713455,1.21615 -5.29393,2.76437 -8.114754,3.70499 -0.940701,0.31357 3.322163,-2.08559 2.375251,-1.79113 -1.719459,0.53476 -4.736141,2.86057 -6.353071,4.03796 0,0 -9.094591,3.76712 -9.094591,3.76712 z"
       inkscape:connector-curvature="0"
       inkscape:export-filename="/home/shershah/rect1781.png"
       inkscape:export-xdpi="96"
       inkscape:export-ydpi="96" />
  </g>
</svg>
