<?xml version="1.0" encoding="UTF-8" standalone="no"?>
<!-- Created with Inkscape (http://www.inkscape.org/) -->

<svg
   xmlns:dc="http://purl.org/dc/elements/1.1/"
   xmlns:cc="http://creativecommons.org/ns#"
   xmlns:rdf="http://www.w3.org/1999/02/22-rdf-syntax-ns#"
   xmlns:svg="http://www.w3.org/2000/svg"
   xmlns="http://www.w3.org/2000/svg"
   xmlns:sodipodi="http://sodipodi.sourceforge.net/DTD/sodipodi-0.dtd"
   xmlns:inkscape="http://www.inkscape.org/namespaces/inkscape"
   width="256px"
   height="256px"
   viewBox="0 0 256 256"
   version="1.1"
   id="SVGRoot"
   inkscape:version="0.92.3 (2405546, 2018-03-11)"
   sodipodi:docname="ml-logo.svg">
  <sodipodi:namedview
     id="base"
     pagecolor="#ffffff"
     bordercolor="#666666"
     borderopacity="1.0"
     inkscape:pageopacity="0.0"
     inkscape:pageshadow="2"
     inkscape:zoom="2.8284271"
     inkscape:cx="114.50934"
     inkscape:cy="133.18599"
     inkscape:document-units="px"
     inkscape:current-layer="layer1"
     showgrid="false"
     inkscape:window-width="1920"
     inkscape:window-height="960"
     inkscape:window-x="0"
     inkscape:window-y="27"
     inkscape:window-maximized="1"
     inkscape:grid-bbox="true"
     inkscape:snap-global="false" />
  <defs
     id="defs815">
    <mask
       maskUnits="userSpaceOnUse"
       id="mask1451">
      <rect
         style="opacity:1;fill:#012f85;fill-opacity:1;stroke:none;stroke-width:1;stroke-linecap:round;stroke-linejoin:round;stroke-miterlimit:4;stroke-dasharray:none;stroke-dashoffset:0;stroke-opacity:0.94117647"
         id="rect1453"
         width="104.29825"
         height="247.13382"
         x="-75.944702"
         y="-30.838562"
         transform="rotate(-15)" />
    </mask>
    <mask
       maskUnits="userSpaceOnUse"
       id="mask1455">
      <rect
         style="opacity:1;fill:#012f85;fill-opacity:1;stroke:none;stroke-width:1;stroke-linecap:round;stroke-linejoin:round;stroke-miterlimit:4;stroke-dasharray:none;stroke-dashoffset:0;stroke-opacity:0.94117647"
         id="rect1457"
         width="104.29825"
         height="247.13382"
         x="-75.944702"
         y="-94.831726"
         transform="rotate(-15)" />
    </mask>
    <mask
       maskUnits="userSpaceOnUse"
       id="mask1459">
      <rect
         style="opacity:1;fill:#012f85;fill-opacity:1;stroke:none;stroke-width:1;stroke-linecap:round;stroke-linejoin:round;stroke-miterlimit:4;stroke-dasharray:none;stroke-dashoffset:0;stroke-opacity:0.94117647"
         id="rect1461"
         width="104.29825"
         height="247.13382"
         x="-21.851036"
         y="-63.011921"
         transform="rotate(-15)" />
    </mask>
    <mask
       maskUnits="userSpaceOnUse"
       id="mask1463">
      <rect
         style="opacity:1;fill:#012f85;fill-opacity:1;stroke:none;stroke-width:1;stroke-linecap:round;stroke-linejoin:round;stroke-miterlimit:4;stroke-dasharray:none;stroke-dashoffset:0;stroke-opacity:0.94117647"
         id="rect1465"
         width="104.29825"
         height="247.13382"
         x="-21.851036"
         y="-0.43297091"
         transform="rotate(-15)" />
    </mask>
    <mask
       maskUnits="userSpaceOnUse"
       id="mask1467">
      <rect
         style="opacity:1;fill:#012f85;fill-opacity:1;stroke:none;stroke-width:1;stroke-linecap:round;stroke-linejoin:round;stroke-miterlimit:4;stroke-dasharray:none;stroke-dashoffset:0;stroke-opacity:0.94117647"
         id="rect1469"
         width="104.29825"
         height="247.13382"
         x="-78.066025"
         y="32.801048"
         transform="rotate(-15)" />
    </mask>
    <clipPath
       clipPathUnits="userSpaceOnUse"
       id="clipPath1737">
      <path
         inkscape:connector-curvature="0"
         id="path1739"
         d="M 129.26005,63.678546 112.51715,53.504525 81.719121,68.749354 v 23.123989 l -16.7429,10.174007 v 37.51219 l 16.7429,10.17403 v 23.12397 l 30.798029,15.24483 16.7429,-10.17403 16.74288,10.17403 30.79805,-15.24483 v -23.12397 l 16.7429,-10.17403 V 102.04735 L 176.80098,91.873343 V 68.749354 L 146.00293,53.504525 Z"
         style="fill:#ffffff;stroke:#000000;stroke-width:2;stroke-linecap:butt;stroke-linejoin:miter;stroke-miterlimit:4;stroke-dasharray:none;stroke-opacity:1" />
    </clipPath>
    <clipPath
       clipPathUnits="userSpaceOnUse"
       id="clipPath1743">
      <path
         inkscape:connector-curvature="0"
         id="path1745"
         d="M 129.26005,63.678546 112.51715,53.504525 81.719121,68.749354 v 23.123989 l -16.7429,10.174007 v 37.51219 l 16.7429,10.17403 v 23.12397 l 30.798029,15.24483 16.7429,-10.17403 16.74288,10.17403 30.79805,-15.24483 v -23.12397 l 16.7429,-10.17403 V 102.04735 L 176.80098,91.873343 V 68.749354 L 146.00293,53.504525 Z"
         style="fill:#800000;stroke:#000000;stroke-width:2;stroke-linecap:butt;stroke-linejoin:miter;stroke-miterlimit:4;stroke-dasharray:none;stroke-opacity:1" />
    </clipPath>
    <clipPath
       clipPathUnits="userSpaceOnUse"
       id="clipPath1749">
      <path
         inkscape:connector-curvature="0"
         id="path1751"
         d="M 129.26005,63.678546 112.51715,53.504525 81.719121,68.749354 v 23.123989 l -16.7429,10.174007 v 37.51219 l 16.7429,10.17403 v 23.12397 l 30.798029,15.24483 16.7429,-10.17403 16.74288,10.17403 30.79805,-15.24483 v -23.12397 l 16.7429,-10.17403 V 102.04735 L 176.80098,91.873343 V 68.749354 L 146.00293,53.504525 Z"
         style="fill:#008000;stroke:#000000;stroke-width:2;stroke-linecap:butt;stroke-linejoin:miter;stroke-miterlimit:4;stroke-dasharray:none;stroke-opacity:1" />
    </clipPath>
    <clipPath
       clipPathUnits="userSpaceOnUse"
       id="clipPath1755">
      <path
         inkscape:connector-curvature="0"
         id="path1757"
         d="M 129.26005,63.678546 112.51715,53.504525 81.719121,68.749354 v 23.123989 l -16.7429,10.174007 v 37.51219 l 16.7429,10.17403 v 23.12397 l 30.798029,15.24483 16.7429,-10.17403 16.74288,10.17403 30.79805,-15.24483 v -23.12397 l 16.7429,-10.17403 V 102.04735 L 176.80098,91.873343 V 68.749354 L 146.00293,53.504525 Z"
         style="fill:#ff0000;stroke:#000000;stroke-width:2;stroke-linecap:butt;stroke-linejoin:miter;stroke-miterlimit:4;stroke-dasharray:none;stroke-opacity:1" />
    </clipPath>
    <clipPath
       clipPathUnits="userSpaceOnUse"
       id="clipPath1779">
      <path
         inkscape:connector-curvature="0"
         id="path1781"
         d="M 129.26005,63.678546 112.51715,53.504525 81.719121,68.749354 v 23.123989 l -16.7429,10.174007 v 37.51219 l 16.7429,10.17403 v 23.12397 l 30.798029,15.24483 16.7429,-10.17403 16.74288,10.17403 30.79805,-15.24483 v -23.12397 l 16.7429,-10.17403 V 102.04735 L 176.80098,91.873343 V 68.749354 L 146.00293,53.504525 Z"
         style="fill:#008080;stroke:#000000;stroke-width:2;stroke-linecap:butt;stroke-linejoin:miter;stroke-miterlimit:4;stroke-dasharray:none;stroke-opacity:1" />
    </clipPath>
    <clipPath
       clipPathUnits="userSpaceOnUse"
       id="clipPath1785">
      <path
         inkscape:connector-curvature="0"
         id="path1787"
         d="M 129.26005,63.678546 112.51715,53.504525 81.719121,68.749354 v 23.123989 l -16.7429,10.174007 v 37.51219 l 16.7429,10.17403 v 23.12397 l 30.798029,15.24483 16.7429,-10.17403 16.74288,10.17403 30.79805,-15.24483 v -23.12397 l 16.7429,-10.17403 V 102.04735 L 176.80098,91.873343 V 68.749354 L 146.00293,53.504525 Z"
         style="fill:#008080;stroke:#000000;stroke-width:2;stroke-linecap:butt;stroke-linejoin:miter;stroke-miterlimit:4;stroke-dasharray:none;stroke-opacity:1" />
    </clipPath>
    <clipPath
       clipPathUnits="userSpaceOnUse"
       id="clipPath1789">
      <path
         inkscape:connector-curvature="0"
         id="path1791"
         d="M 129.26005,63.678546 112.51715,53.504525 81.719121,68.749354 v 23.123989 l -16.7429,10.174007 v 37.51219 l 16.7429,10.17403 v 23.12397 l 30.798029,15.24483 16.7429,-10.17403 16.74288,10.17403 30.79805,-15.24483 v -23.12397 l 16.7429,-10.17403 V 102.04735 L 176.80098,91.873343 V 68.749354 L 146.00293,53.504525 Z"
         style="fill:#008080;stroke:#000000;stroke-width:2;stroke-linecap:butt;stroke-linejoin:miter;stroke-miterlimit:4;stroke-dasharray:none;stroke-opacity:1" />
    </clipPath>
    <clipPath
       clipPathUnits="userSpaceOnUse"
       id="clipPath1793">
      <path
         inkscape:connector-curvature="0"
         id="path1795"
         d="M 129.26005,63.678546 112.51715,53.504525 81.719121,68.749354 v 23.123989 l -16.7429,10.174007 v 37.51219 l 16.7429,10.17403 v 23.12397 l 30.798029,15.24483 16.7429,-10.17403 16.74288,10.17403 30.79805,-15.24483 v -23.12397 l 16.7429,-10.17403 V 102.04735 L 176.80098,91.873343 V 68.749354 L 146.00293,53.504525 Z"
         style="fill:#008080;stroke:#000000;stroke-width:2;stroke-linecap:butt;stroke-linejoin:miter;stroke-miterlimit:4;stroke-dasharray:none;stroke-opacity:1" />
    </clipPath>
    <clipPath
       clipPathUnits="userSpaceOnUse"
       id="clipPath1797">
      <path
         inkscape:connector-curvature="0"
         id="path1799"
         d="M 129.26005,63.678546 112.51715,53.504525 81.719121,68.749354 v 23.123989 l -16.7429,10.174007 v 37.51219 l 16.7429,10.17403 v 23.12397 l 30.798029,15.24483 16.7429,-10.17403 16.74288,10.17403 30.79805,-15.24483 v -23.12397 l 16.7429,-10.17403 V 102.04735 L 176.80098,91.873343 V 68.749354 L 146.00293,53.504525 Z"
         style="fill:#008080;stroke:#000000;stroke-width:2;stroke-linecap:butt;stroke-linejoin:miter;stroke-miterlimit:4;stroke-dasharray:none;stroke-opacity:1" />
    </clipPath>
    <filter
       style="color-interpolation-filters:sRGB;"
       inkscape:label="Drop Shadow"
       id="filter1863">
      <feFlood
         flood-opacity="0.498039"
         flood-color="rgb(0,0,0)"
         result="flood"
         id="feFlood1853" />
      <feComposite
         in="flood"
         in2="SourceGraphic"
         operator="in"
         result="composite1"
         id="feComposite1855" />
      <feGaussianBlur
         in="composite1"
         stdDeviation="3"
         result="blur"
         id="feGaussianBlur1857" />
      <feOffset
         dx="2"
         dy="2"
         result="offset"
         id="feOffset1859" />
      <feComposite
         in="SourceGraphic"
         in2="offset"
         operator="over"
         result="composite2"
         id="feComposite1861" />
    </filter>
    <filter
       style="color-interpolation-filters:sRGB;"
       inkscape:label="Drop Shadow"
       id="filter1875">
      <feFlood
         flood-opacity="0.498039"
         flood-color="rgb(0,0,0)"
         result="flood"
         id="feFlood1865" />
      <feComposite
         in="flood"
         in2="SourceGraphic"
         operator="in"
         result="composite1"
         id="feComposite1867" />
      <feGaussianBlur
         in="composite1"
         stdDeviation="3"
         result="blur"
         id="feGaussianBlur1869" />
      <feOffset
         dx="2"
         dy="2"
         result="offset"
         id="feOffset1871" />
      <feComposite
         in="SourceGraphic"
         in2="offset"
         operator="over"
         result="composite2"
         id="feComposite1873" />
    </filter>
    <filter
       style="color-interpolation-filters:sRGB;"
       inkscape:label="Drop Shadow"
       id="filter1887">
      <feFlood
         flood-opacity="0.498039"
         flood-color="rgb(0,0,0)"
         result="flood"
         id="feFlood1877" />
      <feComposite
         in="flood"
         in2="SourceGraphic"
         operator="in"
         result="composite1"
         id="feComposite1879" />
      <feGaussianBlur
         in="composite1"
         stdDeviation="3"
         result="blur"
         id="feGaussianBlur1881" />
      <feOffset
         dx="2"
         dy="2"
         result="offset"
         id="feOffset1883" />
      <feComposite
         in="SourceGraphic"
         in2="offset"
         operator="over"
         result="composite2"
         id="feComposite1885" />
    </filter>
  </defs>
  <metadata
     id="metadata818">
    <rdf:RDF>
      <cc:Work
         rdf:about="">
        <dc:format>image/svg+xml</dc:format>
        <dc:type
           rdf:resource="http://purl.org/dc/dcmitype/StillImage" />
        <dc:title></dc:title>
      </cc:Work>
    </rdf:RDF>
  </metadata>
  <g
     id="layer1"
     inkscape:groupmode="layer"
     inkscape:label="Layer 1">
    <path
       style="fill:#0044aa;stroke:none;stroke-width:1;stroke-linecap:butt;stroke-linejoin:miter;stroke-opacity:1;stroke-miterlimit:4;stroke-dasharray:none;filter:url(#filter1863)"
       d="m 121.97591,179.27892 12.37437,-30.75915 34.29468,-3.88909 6.71751,-10.25304 28.28427,-19.44544 -2.47487,-24.041635 -41.36575,-27.223619 -33.94112,-2.474874 -47.729706,31.112703 -9.545941,34.294685 20.85965,28.63783 5.656854,9.54594 16.970553,1.76776 -0.35355,11.66727 z"
       id="path1837"
       inkscape:connector-curvature="0" />
    <path
       style="fill:#0066ff;stroke:none;stroke-width:1;stroke-linecap:butt;stroke-linejoin:miter;stroke-opacity:1;stroke-miterlimit:4;stroke-dasharray:none;filter:url(#filter1875)"
       d="m 115.37973,181.98603 12.37437,-30.75915 34.29468,-3.88909 6.71751,-10.25304 28.28427,-19.44544 -2.47487,-24.041635 -41.36575,-27.223613 -33.94112,-2.474874 -47.729715,31.112697 -9.545941,34.294685 20.85965,28.63783 5.656854,9.54594 16.970562,1.76776 -0.35355,11.66727 z"
       id="path1833"
       inkscape:connector-curvature="0" />
    <path
       inkscape:connector-curvature="0"
       id="path1835"
       d="m 108.42998,185.04669 12.37437,-30.75915 34.29468,-3.88909 6.71751,-10.25304 28.28427,-19.44544 -2.47487,-24.041635 -41.36575,-27.223613 -33.94112,-2.474874 -47.729712,31.112697 -9.545941,34.294685 20.85965,28.63783 5.656854,9.54594 16.970559,1.76776 -0.35355,11.66727 z"
       style="fill:#5599ff;stroke:none;stroke-width:1;stroke-linecap:butt;stroke-linejoin:miter;stroke-opacity:1;stroke-miterlimit:4;stroke-dasharray:none;filter:url(#filter1887);paint-order:markers fill stroke" />
  </g>
</svg>
