{
  "accessors": [
    {
      "name": "typeMesh1_1_0_positions",
      "componentType": 5126,
      "count": 3303,
      "min": [
        0.47999998927116394,
        -0.23999999463558197,
        0
      ],
      "max": [
        79.08000183105469,
        7.679999828338623,
        2.500019073486328
      ],
      "type": "VEC3",
      "bufferView": 0,
      "byteOffset": 0
    },
    {
      "name": "typeMesh1_1_0_normals",
      "componentType": 5126,
      "count": 3303,
      "min": [
        -1,
        -1,
        -1
      ],
      "max": [
        1,
        1,
        1
      ],
      "type": "VEC3",
      "bufferView": 1,
      "byteOffset": 0
    },
    {
      "name": "typeMesh1_1_0_texcoords",
      "componentType": 5126,
      "count": 3303,
      "min": [
        0.0019920000340789557,
        0.010499999858438969
      ],
      "max": [
        0.9980080127716064,
        0.9980250000953674
      ],
      "type": "VEC2",
      "bufferView": 2,
      "byteOffset": 0
    },
    {
      "name": "typeMesh1_1_0_indices",
      "componentType": 5123,
      "count": 11985,
      "min": [
        0
      ],
      "max": [
        3302
      ],
      "type": "SCALAR",
      "bufferView": 3,
      "byteOffset": 0
    },
    {
      "name": "pCube1_1_0_positions",
      "componentType": 5126,
      "count": 24,
      "min": [
        -0.5,
        -1.7502930164337158,
        -0.5
      ],
      "max": [
        38.211456298828125,
        -0.7502930164337158,
        0.5
      ],
      "type": "VEC3",
      "bufferView": 0,
      "byteOffset": 39636
    },
    {
      "name": "pCube1_1_0_normals",
      "componentType": 5126,
      "count": 24,
      "min": [
        -1,
        -1,
        -1
      ],
      "max": [
        1,
        1,
        1
      ],
      "type": "VEC3",
      "bufferView": 1,
      "byteOffset": 39636
    },
    {
      "name": "pCube1_1_0_texcoords",
      "componentType": 5126,
      "count": 24,
      "min": [
        0.125,
        0
      ],
      "max": [
        0.875,
        1
      ],
      "type": "VEC2",
      "bufferView": 2,
      "byteOffset": 26424
    },
    {
      "name": "pCube1_1_0_indices",
      "componentType": 5123,
      "count": 36,
      "min": [
        0
      ],
      "max": [
        23
      ],
      "type": "SCALAR",
      "bufferView": 3,
      "byteOffset": 23972
    },
    {
      "name": "pCube2_1_0_positions",
      "componentType": 5126,
      "count": 24,
      "min": [
        40.96776580810547,
        -1.7502930164337158,
        -0.5
      ],
      "max": [
        79.6792221069336,
        -0.7502930164337158,
        0.5
      ],
      "type": "VEC3",
      "bufferView": 0,
      "byteOffset": 39924
    },
    {
      "name": "pCube2_1_0_normals",
      "componentType": 5126,
      "count": 24,
      "min": [
        -1,
        -1,
        -1
      ],
      "max": [
        1,
        1,
        1
      ],
      "type": "VEC3",
      "bufferView": 1,
      "byteOffset": 39924
    },
    {
      "name": "pCube2_1_0_texcoords",
      "componentType": 5126,
      "count": 24,
      "min": [
        0.125,
        0
      ],
      "max": [
        0.875,
        1
      ],
      "type": "VEC2",
      "bufferView": 2,
      "byteOffset": 26616
    },
    {
      "name": "pCube2_1_0_indices",
      "componentType": 5123,
      "count": 36,
      "min": [
        0
      ],
      "max": [
        23
      ],
      "type": "SCALAR",
      "bufferView": 3,
      "byteOffset": 24044
    },
    {
      "name": "pSphere1_1_0_positions",
      "componentType": 5126,
      "count": 439,
      "min": [
        38.542972564697266,
        -2.262877941131592,
        -1
      ],
      "max": [
        40.542972564697266,
        -0.2628780007362366,
        1
      ],
      "type": "VEC3",
      "bufferView": 0,
      "byteOffset": 40212
    },
    {
      "name": "pSphere1_1_0_normals",
      "componentType": 5126,
      "count": 439,
      "min": [
        -1,
        -1,
        -1
      ],
      "max": [
        1,
        1,
        1
      ],
      "type": "VEC3",
      "bufferView": 1,
      "byteOffset": 40212
    },
    {
      "name": "pSphere1_1_0_texcoords",
      "componentType": 5126,
      "count": 439,
      "min": [
        0,
        0
      ],
      "max": [
        1,
        1
      ],
      "type": "VEC2",
      "bufferView": 2,
      "byteOffset": 26808
    },
    {
      "name": "pSphere1_1_0_indices",
      "componentType": 5123,
      "count": 2280,
      "min": [
        0
      ],
      "max": [
        438
      ],
      "type": "SCALAR",
      "bufferView": 3,
      "byteOffset": 24116
    }
  ],
  "asset": {
    "generator": "obj2gltf",
    "version": "2.0"
  },
  "buffers": [
    {
      "name": "gp",
      "byteLength": 149956,
      "uri": "data:application/octet-stream;base64,"
    }
  ],
  "bufferViews": [
    {
      "name": "bufferView_0",
      "buffer": 0,
      "byteLength": 45480,
      "byteOffset": 0,
      "byteStride": 12,
      "target": 34962
    },
    {
      "name": "bufferView_1",
      "buffer": 0,
      "byteLength": 45480,
      "byteOffset": 45480,
      "byteStride": 12,
      "target": 34962
    },
    {
      "name": "bufferView_2",
      "buffer": 0,
      "byteLength": 30320,
      "byteOffset": 90960,
      "byteStride": 8,
      "target": 34962
    },
    {
      "name": "bufferView_3",
      "buffer": 0,
      "byteLength": 28676,
      "byteOffset": 121280,
      "target": 34963
    }
  ],
  "materials": [
    {
      "name": "initialShadingGroup",
      "pbrMetallicRoughness": {
        "baseColorFactor": [
          1,
          1,
          1,
          1
        ],
        "metallicFactor": 0,
        "roughnessFactor": 1
      },
      "emissiveFactor": [
        0,
        0,
        0
      ],
      "alphaMode": "OPAQUE",
      "doubleSided": false
    }
  ],
  "meshes": [
    {
      "name": "typeMesh1_1",
      "primitives": [
        {
          "attributes": {
            "POSITION": 0,
            "NORMAL": 1,
            "TEXCOORD_0": 2
          },
          "indices": 3,
          "material": 0,
          "mode": 4
        }
      ]
    },
    {
      "name": "pCube1_1",
      "primitives": [
        {
          "attributes": {
            "POSITION": 4,
            "NORMAL": 5,
            "TEXCOORD_0": 6
          },
          "indices": 7,
          "material": 0,
          "mode": 4
        }
      ]
    },
    {
      "name": "pCube2_1",
      "primitives": [
        {
          "attributes": {
            "POSITION": 8,
            "NORMAL": 9,
            "TEXCOORD_0": 10
          },
          "indices": 11,
          "material": 0,
          "mode": 4
        }
      ]
    },
    {
      "name": "pSphere1_1",
      "primitives": [
        {
          "attributes": {
            "POSITION": 12,
            "NORMAL": 13,
            "TEXCOORD_0": 14
          },
          "indices": 15,
          "material": 0,
          "mode": 4
        }
      ]
    }
  ],
  "nodes": [
    {
      "name": "typeMesh1",
      "mesh": 0
    },
    {
      "name": "pCube1",
      "mesh": 1
    },
    {
      "name": "pCube2",
      "mesh": 2
    },
    {
      "name": "pSphere1",
      "mesh": 3
    }
  ],
  "scene": 0,
  "scenes": [
    {
      "nodes": [
        0,
        1,
        2,
        3
      ]
    }
  ]
}
